<svg width="16" height="16" viewBox="0 0 16 16" fill="none" xmlns="http://www.w3.org/2000/svg">
<path fill-rule="evenodd" clip-rule="evenodd" d="M1.5 0H1V0.5V14.5V15H1.5H13.5H14V14.5V4.5V4.29289L13.8536 4.14645L9.85355 0.146447L9.70711 0H9.5H1.5ZM2 14V1H9V4.5V5H9.5H13V14H2ZM12.2929 4L10 1.70711V4H12.2929ZM4 4H7V3H4V4ZM6 6.9C6.22091 6.9 6.4 6.72091 6.4 6.5C6.4 6.27909 6.22091 6.1 6 6.1C5.77909 6.1 5.6 6.27909 5.6 6.5C5.6 6.72091 5.77909 6.9 6 6.9ZM6.3 7.45422C6.70571 7.32679 7 6.94776 7 6.5C7 5.94772 6.55228 5.5 6 5.5C5.44772 5.5 5 5.94772 5 6.5C5 6.94776 5.29429 7.32679 5.7 7.45422V8.04578C5.29429 8.17321 5 8.55224 5 9C5 9.44776 5.29429 9.82679 5.7 9.95422V10.5458C5.29429 10.6732 5 11.0522 5 11.5C5 12.0523 5.44772 12.5 6 12.5C6.55228 12.5 7 12.0523 7 11.5C7 11.0522 6.70571 10.6732 6.3 10.5458V9.95422C6.4719 9.90023 6.62379 9.80107 6.74178 9.67066L7.55084 10.1843C7.51786 10.2836 7.5 10.3897 7.5 10.5C7.5 11.0523 7.94772 11.5 8.5 11.5C9.05228 11.5 9.5 11.0523 9.5 10.5C9.5 9.94772 9.05228 9.5 8.5 9.5C8.27568 9.5 8.06862 9.57386 7.90179 9.69858L7.90276 9.69706L6.99294 9.11941C6.9976 9.08026 7 9.04041 7 9C7 8.96319 6.99801 8.92685 6.99414 8.89108L7.68504 8.57966C7.86634 8.83408 8.16379 9 8.5 9C9.05228 9 9.5 8.55228 9.5 8C9.5 7.44772 9.05228 7 8.5 7C7.94772 7 7.5 7.44772 7.5 8L7.50001 8.00493L6.7528 8.34173C6.63332 8.2052 6.4773 8.10147 6.3 8.04578V7.45422ZM8.9 8C8.9 8.22091 8.72091 8.4 8.5 8.4C8.27909 8.4 8.1 8.22091 8.1 8C8.1 7.77909 8.27909 7.6 8.5 7.6C8.72091 7.6 8.9 7.77909 8.9 8ZM6.4 9C6.4 9.22091 6.22091 9.4 6 9.4C5.77909 9.4 5.6 9.22091 5.6 9C5.6 8.77909 5.77909 8.6 6 8.6C6.22091 8.6 6.4 8.77909 6.4 9ZM8.5 10.9C8.72091 10.9 8.9 10.7209 8.9 10.5C8.9 10.2791 8.72091 10.1 8.5 10.1C8.27909 10.1 8.1 10.2791 8.1 10.5C8.1 10.7209 8.27909 10.9 8.5 10.9ZM6.4 11.5C6.4 11.7209 6.22091 11.9 6 11.9C5.77909 11.9 5.6 11.7209 5.6 11.5C5.6 11.2791 5.77909 11.1 6 11.1C6.22091 11.1 6.4 11.2791 6.4 11.5Z" fill="#D84EE0"/>
</svg>
